<?xml version="1.0" encoding="utf-8"?>
<!-- Generator: Adobe Illustrator 24.3.0, SVG Export Plug-In . SVG Version: 6.00 Build 0)  -->
<svg version="1.1" id="Слой_1" xmlns="http://www.w3.org/2000/svg" xmlns:xlink="http://www.w3.org/1999/xlink" x="0px" y="0px"
	 viewBox="0 0 612 792" style="enable-background:new 0 0 612 792;" xml:space="preserve">
<style type="text/css">
	.st0{fill:#50132C;}
	.st1{fill:url(#SVGID_1_);}
	.st2{fill:#A21738;}
	.st3{fill:url(#SVGID_2_);}
	.st4{fill:url(#SVGID_3_);}
	.st5{fill:url(#SVGID_4_);}
	.st6{fill:url(#SVGID_5_);}
	.st7{fill:url(#SVGID_6_);}
	.st8{fill:url(#SVGID_7_);}
	.st9{fill:url(#SVGID_8_);}
	.st10{fill:url(#SVGID_9_);}
	.st11{fill:url(#SVGID_10_);}
	.st12{fill:url(#SVGID_11_);}
	.st13{fill:url(#SVGID_12_);}
	.st14{fill:url(#SVGID_13_);}
	.st15{fill:url(#SVGID_14_);}
	.st16{fill:url(#SVGID_15_);}
	.st17{fill:url(#SVGID_16_);}
	.st18{fill:url(#SVGID_17_);}
	.st19{fill:#441337;}
</style>
<g>
	<path class="st0" d="M207.48,356.31c9.3-0.56,18.7,0.73,27.51,3.77c1.52,1.96,1.38,4.54-0.48,6.18c-9.27-0.98-18.04-1.62-27.31-2.6
		C207.02,361.18,206.21,358.45,207.48,356.31z"/>
	
		<linearGradient id="SVGID_1_" gradientUnits="userSpaceOnUse" x1="-447.8989" y1="338.4577" x2="-454.9857" y2="379.7281" gradientTransform="matrix(-1 0 0 1 -275.3028 0)">
		<stop  offset="5.586590e-03" style="stop-color:#DF5F2F"/>
		<stop  offset="0.9888" style="stop-color:#A21738"/>
	</linearGradient>
	<path class="st1" d="M133.86,370.57c1.32,2.2,3.62,3.92,6.76,4.55c5.04,1.03,10.53-0.24,15.57-0.88
		c11.12-1.52,22.33-2.2,33.55-2.65c6.66-0.29,22.19,1.47,27.47-3.67c2.79-2.74,3.97-6.76,3.53-10.58c-0.29-2.6-1.42-5.14-3.23-7.1
		c-2.79-2.89-12.59-3.18-16.6-3.67c-6.51-0.78-13.08-1.18-19.64-1.08c-13.76,0.24-39.67,0.64-47.31,14.3
		C131.95,363.42,132,367.48,133.86,370.57z"/>
	<path class="st2" d="M133.86,370.57c1.32,2.2,3.62,3.92,6.76,4.55c5.04,1.03,10.53-0.24,15.57-0.88
		c11.12-1.52,22.33-2.2,33.55-2.65c6.66-0.29,22.19,1.47,27.47-3.67c2.79-2.74,3.97-6.76,3.53-10.58
		c-5.78-0.88-13.71,2.55-18.86,2.99c-18.17,1.47-36.54-2.5-54.61,0.83c-3.18,0.59-6.37,1.47-9.01,3.28
		C136.16,365.92,134.4,368.07,133.86,370.57z"/>
	<g>
		
			<linearGradient id="SVGID_2_" gradientUnits="userSpaceOnUse" x1="-475.8666" y1="604.0685" x2="-415.0128" y2="327.7264" gradientTransform="matrix(-1 0 0 1 -275.3028 0)">
			<stop  offset="0.0559" style="stop-color:#5F1215"/>
			<stop  offset="0.2602" style="stop-color:#681B1A"/>
			<stop  offset="0.6442" style="stop-color:#813428"/>
			<stop  offset="0.8607" style="stop-color:#934731"/>
		</linearGradient>
		<path class="st3" d="M127.3,387.37c0.93,4.31,4.26,7.25,8.57,7.98c2.15,0.39,4.41,0.2,6.56-0.05c3.53-0.39,7.49-1.18,9.45-4.11
			c1.52-2.3,1.37-5.44,0.24-7.93c-1.08-2.55-2.94-4.65-4.8-6.71c10.82-0.44,15.77,4.36,21.65,12.83c5.44,7.89,9.35,16.9,11.36,26.3
			c5.58,26.69-4.75,48.49-19.59,69.69c-7.64,10.97-14.89,23.41-14.06,36.73c0.98,14.4,11.02,26.25,20.28,37.32
			c9.26,11.07,18.56,23.9,17.63,38.3c-4.51,2.45-8.18,8.03-8.91,13.13c3.67,1.18,7.59,1.47,11.36,0.98c1.86-0.2,3.72-0.59,5.53-1.18
			c6.27-16.36,2.69-34.48-2.94-50.44c-4.36-12.29-9.45-24.88-8.13-37.86c1.27-12.29,8.23-23.17,12.68-34.72
			c7.25-18.85,7.84-39.91,3.77-59.7c-4.55-21.99-14.1-52.11-34.92-63.28c-5.53-3.04-11.9-4.7-19.15-4.51
			c-3.97,0.1-8.13,0.88-11.07,3.53c-3.58,3.23-4.46,8.42-5.19,13.17C127.1,380.31,126.61,383.94,127.3,387.37z"/>
		
			<linearGradient id="SVGID_3_" gradientUnits="userSpaceOnUse" x1="-438.3831" y1="429.82" x2="-455.9797" y2="566.5944" gradientTransform="matrix(-1 0 0 1 -275.3028 0)">
			<stop  offset="0" style="stop-color:#8A7352"/>
			<stop  offset="0.1192" style="stop-color:#7F6A4E"/>
			<stop  offset="0.3314" style="stop-color:#625242"/>
			<stop  offset="0.6119" style="stop-color:#38312D"/>
			<stop  offset="0.9468" style="stop-color:#070708"/>
			<stop  offset="1" style="stop-color:#020203"/>
		</linearGradient>
		<path class="st4" d="M173.75,559.16c-5.77-5.89-11.6-11.84-15.97-18.83c-4.38-6.99-7.25-15.21-6.52-23.42
			c0.91-10.21,7.13-19.05,12.62-27.7c8.43-13.28,13.9-26.74,18.77-41.59c2.13-6.49,2.36-13.48,1.71-20.24
			c-0.31-3.18-0.6-6.72-1.53-9.79c-0.49-1.61-1.29-3.04-1.63-4.71c-0.15-0.72-0.01-4.34-0.37-4.68c1.88,1.74,3.04,4.13,3.7,6.61
			c2.32,8.71,1.56,19.39,1.01,28.32c-0.6,9.71-2.31,19.39-5.79,28.5c-5.54,14.49-14.68,28.07-15.64,43.56
			C163.22,529.54,167.55,546.16,173.75,559.16z"/>
		<path class="st0" d="M189.35,480.17c-5.53,15.82-14.74,30.9-15.38,47.65c-0.54,15.38,6.17,29.87,11.02,44.47
			c4.21,12.78,6.81,27.28,2.06,39.52c1.86-0.2,3.72-0.59,5.53-1.18c6.27-16.36,2.69-34.48-2.94-50.44
			c-4.36-12.29-9.45-24.88-8.13-37.86c1.27-12.29,8.23-23.17,12.68-34.72c7.25-18.85,7.84-39.91,3.77-59.7
			c-4.55-21.99-14.1-52.11-34.92-63.28C192.29,394.22,203.01,440.85,189.35,480.17z"/>
		
			<linearGradient id="SVGID_4_" gradientUnits="userSpaceOnUse" x1="-397.8592" y1="359.0266" x2="-425.3687" y2="381.7428" gradientTransform="matrix(-1 0 0 1 -275.3028 0)">
			<stop  offset="0" style="stop-color:#8A7352"/>
			<stop  offset="0.1192" style="stop-color:#7F6A4E"/>
			<stop  offset="0.3314" style="stop-color:#625242"/>
			<stop  offset="0.6119" style="stop-color:#38312D"/>
			<stop  offset="0.9468" style="stop-color:#070708"/>
			<stop  offset="1" style="stop-color:#020203"/>
		</linearGradient>
		<path class="st5" d="M133.94,390.16c-7.28-4.89-4.73-20.81,1.54-25.54c5.28-3.98,12.9-0.71,18.85-1.13
			c-3.69,0.69-7.67,2.73-10.93,4.6c-3.25,1.87-5.95,5.13-6.11,8.88c-0.08,1.8,0.43,3.57,1.06,5.26c0.46,1.23,0.99,2.44,1.16,3.74
			c0.17,1.3-0.08,2.72-0.99,3.66C137.38,390.82,135.31,391.08,133.94,390.16z"/>
	</g>
	<g>
		<path class="st0" d="M200.67,522.1c-0.83-13.32,6.42-25.76,14.06-36.73c5-7.14,9.46-14.35,13-21.79
			c6.37,1.04,13.59-0.12,20.2-2.42v0c2.21-0.77,4.34-1.67,6.35-2.66c-0.57,9.97-2.51,19.82-6.1,29.13
			c-4.46,11.56-11.41,22.43-12.68,34.72c-1.32,12.98,3.77,25.56,8.13,37.86c5.63,15.97,9.21,34.09,2.94,50.44
			c-1.81,0.59-3.67,0.98-5.53,1.18c-3.77,0.49-7.69,0.2-11.36-0.98c0.73-5.09,4.41-10.68,8.91-13.13
			c0.93-14.4-8.37-27.23-17.63-38.3C211.69,548.35,201.65,536.49,200.67,522.1z"/>
		<path class="st0" d="M378.06,487.62c-3.58-9.31-5.52-19.16-6.1-29.13c2.01,0.99,4.14,1.89,6.35,2.66v0
			c6.6,2.31,13.83,3.46,20.2,2.42c3.54,7.44,8,14.65,13,21.79c7.64,10.97,14.89,23.41,14.06,36.73
			c-0.98,14.4-11.02,26.25-20.28,37.32c-9.26,11.07-18.56,23.9-17.63,38.3c4.51,2.45,8.18,8.03,8.91,13.13
			c-3.67,1.18-7.59,1.47-11.36,0.98c-1.86-0.2-3.72-0.59-5.53-1.18c-6.27-16.36-2.69-34.48,2.94-50.44
			c4.36-12.29,9.45-24.88,8.13-37.86C389.47,510.05,382.51,499.18,378.06,487.62z"/>
	</g>
	<g>
		
			<linearGradient id="SVGID_5_" gradientUnits="userSpaceOnUse" x1="-764.078" y1="257.6214" x2="-490.2362" y2="256.371" gradientTransform="matrix(-1 0 0 1 -275.3028 0)">
			<stop  offset="0.0559" style="stop-color:#5F1215"/>
			<stop  offset="0.2041" style="stop-color:#681B1A"/>
			<stop  offset="0.4826" style="stop-color:#813428"/>
			<stop  offset="0.6397" style="stop-color:#934731"/>
			<stop  offset="1" style="stop-color:#5F1215"/>
		</linearGradient>
		<path class="st6" d="M225.26,434.38c12.46-28.5,10.37-61.24,4.34-91.76c-6.03-30.52-15.76-60.45-17.96-91.48
			c-3.55-50.11,14.21-102.1,50.31-137.03c36.1-34.93,87.29-55.83,133.84-36.94c34.77,14.11,64.43,41.2,80.06,75.31
			s16.59,75.01,1.03,109.16c-9.4,20.64-24.23,38.24-38.75,55.66c-14.53,17.42-29.14,35.25-38.01,56.12
			c-8.87,20.88-11.35,45.57-1.41,65.96C340.82,447.21,282.84,444.37,225.26,434.38z"/>
		<path class="st0" d="M227.64,433.63c12.08-26.47,11.29-56.9,6.91-85.27c-4.38-28.37-12.08-56.2-13.02-85.04
			c-1.52-46.57,16.06-94.86,49.47-127.28c33.41-32.42,79.83-51.77,120.81-34.16c30.6,13.15,56.21,38.37,69.04,70.1
			c16.32,40.35,11.14,82.28-14.87,116.79c-13.17,17.48-28.78,33.19-40.14,51.9c-17.51,28.84-23.91,64.24-17.61,97.38
			c0.21,1.08-71.28,4.55-77.45,4.4C282.9,441.79,255.09,438.65,227.64,433.63z"/>
		
			<linearGradient id="SVGID_6_" gradientUnits="userSpaceOnUse" x1="-576.5804" y1="111.6113" x2="-657.4409" y2="430.0513" gradientTransform="matrix(-1 0 0 1 -275.3028 0)">
			<stop  offset="5.586590e-03" style="stop-color:#DF5F2F"/>
			<stop  offset="0.9888" style="stop-color:#A21738"/>
		</linearGradient>
		<path class="st7" d="M236.31,331.24c5.39,23.07,9.3,51.08,8.42,76.55c-0.2,7.35-0.88,14.5-2.01,21.25
			c38.3,10.92,80.47,12.24,120.72,8.23c7.1-0.69,14.11-1.57,21.06-2.55c-5.58-28.06-2.11-57.74,9.6-83.84
			c1.47-3.38,3.13-6.76,5.04-10.19c18.85-34.09,52.21-60.48,62.25-98.15c6.95-25.96,1.47-54.22-11.51-77.72
			c-8.67-15.72-19.44-29.58-32.23-40.21c-18.46-15.38-41.24-24.1-68.27-22.19c-56.37,3.97-95.75,45.3-117,94.96
			C213.59,241.37,225.93,286.77,236.31,331.24z"/>
		<g>
			<path class="st2" d="M354.34,421.8c0,0-0.01-4.37-0.03-12.28c0.01-7.9,0.18-19.33,0.74-33.43c1.24-28.18,4.51-67.06,12.34-109.33
				c7.66-42.29,18.32-79.85,27.23-106.58c4.56-13.32,9.2-23.76,12.91-30.72c3.68-6.98,6.13-10.62,6.13-10.62s-2.7,3.45-6.79,10.24
				c-4.13,6.76-9.37,17.03-14.54,30.25c-10.11,26.45-22.03,63.92-29.75,106.54c-7.89,42.59-9.96,81.87-9.97,110.16
				c0.05,14.16,0.49,25.6,0.95,33.5C354.06,417.44,354.34,421.8,354.34,421.8z"/>
		</g>
		<g>
			<path class="st2" d="M311.2,411.77c0,0-0.17-4.44-0.48-12.46c-0.27-8.02-0.6-19.63-0.65-33.96c-0.04-14.33,0.16-31.4,0.98-50.31
				c0.82-18.93,2.12-39.67,5.01-61.28c5.71-43.25,15.8-81.62,24.28-108.96c4.19-13.7,8.1-24.64,10.72-32.22
				c2.74-7.54,4.26-11.72,4.26-11.72s-1.77,4.07-4.98,11.44c-3.06,7.43-7.54,18.16-12.33,31.72c-9.68,27.04-21.05,65.41-26.82,109.1
				c-2.91,21.82-3.92,42.8-4.28,61.79c-0.36,19.02,0.04,36.15,0.7,50.5c0.67,14.36,1.61,25.95,2.33,33.95
				C310.76,407.35,311.2,411.77,311.2,411.77z"/>
		</g>
		<g>
			<path class="st2" d="M281.98,413.74c0,0-0.42-4.03-1.18-11.32c-0.81-7.27-1.78-17.83-2.8-30.86
				c-2.07-26.07-3.75-62.16-3.25-102.01c0.55-39.85,3.2-75.87,5.95-101.89c1.36-13.01,2.61-23.53,3.61-30.78
				c0.95-7.26,1.48-11.28,1.48-11.28s-0.8,3.97-2.23,11.16c-1.46,7.18-3.31,17.63-5.29,30.59c-3.98,25.91-7.86,62.05-8.42,102.13
				c-0.5,40.08,2.42,76.31,5.71,102.32c1.63,13.01,3.21,23.5,4.48,30.72C281.29,409.74,281.98,413.74,281.98,413.74z"/>
		</g>
		<path class="st2" d="M242.73,429.04c38.3,10.92,80.47,12.24,120.72,8.23c7.1-0.69,14.11-1.57,21.06-2.55
			c-5.58-28.06-2.11-57.74,9.6-83.84c1.47-3.38,3.13-6.76,5.04-10.19c18.85-34.09,52.21-60.48,62.25-98.15
			c6.95-25.96,1.47-54.22-11.51-77.72c-8.67-15.72-19.44-29.58-32.23-40.21c18.02,26.2,31.93,57.25,27.72,89.04
			c-4.26,31.79-24.78,58.57-41.48,85.95c-11.46,18.9-21.3,38.89-28.5,59.8c-6.61,19.2-6.02,38.2-26.64,47.55
			c-16.65,7.59-35.41,9.7-53.68,8.72c-16.99-0.93-33.69-4.31-50.35-7.88C244.54,415.13,243.86,422.29,242.73,429.04z"/>
		
			<linearGradient id="SVGID_7_" gradientUnits="userSpaceOnUse" x1="-605.3915" y1="85.6644" x2="-528.7492" y2="142.6057" gradientTransform="matrix(-1 0 0 1 -275.3028 0)">
			<stop  offset="0" style="stop-color:#8A7352"/>
			<stop  offset="0.1192" style="stop-color:#7F6A4E"/>
			<stop  offset="0.3314" style="stop-color:#625242"/>
			<stop  offset="0.6119" style="stop-color:#38312D"/>
			<stop  offset="0.9468" style="stop-color:#070708"/>
			<stop  offset="1" style="stop-color:#020203"/>
		</linearGradient>
		<path class="st8" d="M251.19,131.62c3.32-4.53,6.7-8.4,7.95-9.83c12.59-14.25,28.09-25.87,45.19-34.16
			c7.52-3.64,55.34-24.79,57.37-9.54c0.39,2.93-1.52,5.78-3.99,7.4c-2.47,1.62-5.43,2.27-8.31,2.94
			c-18.58,4.31-36.78,10.65-53.38,20.06s-31.56,21.95-42.64,37.48c-1.29,1.8-2.59,3.71-4.53,4.79c-5.34,2.95-6.14-2.05-5.09-5.92
			C245.08,140.02,248.29,135.58,251.19,131.62z"/>
		
			<linearGradient id="SVGID_8_" gradientUnits="userSpaceOnUse" x1="-594.1964" y1="72.6981" x2="-614.2031" y2="294.6464" gradientTransform="matrix(-1 0 0 1 -275.3028 0)">
			<stop  offset="0" style="stop-color:#9C4A45"/>
			<stop  offset="0.112" style="stop-color:#904643"/>
			<stop  offset="0.3115" style="stop-color:#733C3B"/>
			<stop  offset="0.5753" style="stop-color:#472B2D"/>
			<stop  offset="0.8899" style="stop-color:#130E11"/>
			<stop  offset="1" style="stop-color:#020203"/>
		</linearGradient>
		<path class="st9" d="M372.81,259.99c6.61-46.26,20.51-91.47,41.05-133.45c10.26,15.71,17.94,33.49,20.22,52.11
			C410.07,202.96,391.2,231.2,372.81,259.99z M356.34,212.74c16.8-31.24,32.02-63.78,39.52-98.45
			c-11.5-7.02-24.96-10.81-38.44-10.81c-23.05,57.19-37.8,118-44.31,179.32C328.47,260.6,343.56,236.51,356.34,212.74z
			 M289.48,132.37c-6.56,33.63-8.43,67.98-10.3,102.2c-1.29,23.64-0.09,49.04-1.37,72.68c16.59-15.5,17.64-41.32,22.47-62.17
			c11.06-47.75,26.42-94.5,45.87-139.49c-20.79,1.23-41.04,9.74-56.05,24.18L289.48,132.37z M265.02,223.22
			c3.83-28.16,6.84-57.08,10.67-85.25c-30.44,33.63-50.59,76.96-45.44,122.92c0.41,3.63,0.89,7.26,1.41,10.87
			c2.31,16.26,5.1,32.45,8.34,48.54C254.81,290.84,260.57,255.9,265.02,223.22z"/>
	</g>
	
		<linearGradient id="SVGID_9_" gradientUnits="userSpaceOnUse" x1="-642.4184" y1="481.0799" x2="-439.2258" y2="481.0799" gradientTransform="matrix(-1 0 0 1 -275.3028 0)">
		<stop  offset="0.0559" style="stop-color:#5F1215"/>
		<stop  offset="0.2602" style="stop-color:#681B1A"/>
		<stop  offset="0.6442" style="stop-color:#813428"/>
		<stop  offset="0.8607" style="stop-color:#934731"/>
	</linearGradient>
	<path class="st10" d="M185.8,466.65c-0.52,3.17-0.57,7.33-1.09,10.49c8.27-1.62,16.76,0.42,24.73,3.56
		c7.97,3.14,15.64,7.37,23.66,10.33c17.72,6.53,37.01,6.57,54.75,0.13c9.54-3.46,18.58-8.73,28.11-12.23
		c9.53-3.5,19.93-5.14,29.36-1.25c-0.66-2.78-0.03-4.07-0.69-6.85c-0.47-2.01-0.31-2.5-0.74-4.53
		C291.48,465.87,238.21,467.08,185.8,466.65z"/>
	<polygon class="st0" points="185.4,470.11 344.63,470 344.63,473.76 185.06,472.6 	"/>
	<g>
		
			<linearGradient id="SVGID_10_" gradientUnits="userSpaceOnUse" x1="-570.7181" y1="386.1879" x2="-574.4681" y2="483.6888" gradientTransform="matrix(-1 0 0 1 -275.3028 0)">
			<stop  offset="5.586590e-03" style="stop-color:#DF5F2F"/>
			<stop  offset="0.9888" style="stop-color:#A21738"/>
		</linearGradient>
		<path class="st11" d="M188.17,457.6c72.43,1.66,147.12,2.11,219.6,0c1.71-0.05-3.72-20.08-4.6-21.84
			c-2.55-5.29-6.02-9.65-10.14-13.27c-13.08-11.51-32.72-15.18-51.28-16.99c-20.86-2.01-41.92-0.93-62.83,0.29
			c-29.78,1.71-73.61,8.86-86.83,35.8C189.74,446.28,188.37,451.57,188.17,457.6z"/>
		<path class="st2" d="M188.17,457.6c72.43,1.66,147.12,2.11,219.6,0c1.71-0.05-3.72-20.08-4.6-21.84
			c-2.55-5.29-6.02-9.65-10.14-13.27c-1.47,2.64-2.2,6.32-3.48,8.37c-3.09,4.85-7.59,8.77-12.64,11.41
			c-9.11,4.75-19.59,5.83-29.83,6.56c-51.67,3.67-103.58-0.49-155.01-7.25C189.74,446.28,188.37,451.57,188.17,457.6z"/>
		
			<linearGradient id="SVGID_11_" gradientUnits="userSpaceOnUse" x1="-693.6856" y1="461.778" x2="-455.689" y2="461.778" gradientTransform="matrix(-1 0 0 1 -275.3028 0)">
			<stop  offset="0.0559" style="stop-color:#5F1215"/>
			<stop  offset="0.2041" style="stop-color:#681B1A"/>
			<stop  offset="0.4826" style="stop-color:#813428"/>
			<stop  offset="0.6397" style="stop-color:#934731"/>
			<stop  offset="1" style="stop-color:#5F1215"/>
		</linearGradient>
		<polygon class="st12" points="183.31,470.11 415.46,470.11 418.38,453.44 180.39,453.44 		"/>
		
			<linearGradient id="SVGID_12_" gradientUnits="userSpaceOnUse" x1="-553.0741" y1="384.7489" x2="-559.3671" y2="431.6319" gradientTransform="matrix(-1 0 0 1 -275.3028 0)">
			<stop  offset="0" style="stop-color:#9C4A45"/>
			<stop  offset="0.112" style="stop-color:#904643"/>
			<stop  offset="0.3115" style="stop-color:#733C3B"/>
			<stop  offset="0.5753" style="stop-color:#472B2D"/>
			<stop  offset="0.8899" style="stop-color:#130E11"/>
			<stop  offset="1" style="stop-color:#020203"/>
		</linearGradient>
		<path class="st13" d="M201.75,430.53c16.16-12.27,36.02-18.7,56-21.5c34.89-4.9,70.95-4.69,105.67,1.65
			c-5.31,9.66-12.83,16.31-23.03,20.15c-10.2,3.84-21.17,5.06-32.02,5.85C273.32,439.21,236.3,437.02,201.75,430.53z"/>
		
			<linearGradient id="SVGID_13_" gradientUnits="userSpaceOnUse" x1="-563.6797" y1="443.3419" x2="-565.2427" y2="466.1613" gradientTransform="matrix(-1 0 0 1 -275.3028 0)">
			<stop  offset="0" style="stop-color:#8A7352"/>
			<stop  offset="0.1192" style="stop-color:#7F6A4E"/>
			<stop  offset="0.3314" style="stop-color:#625242"/>
			<stop  offset="0.6119" style="stop-color:#38312D"/>
			<stop  offset="0.9468" style="stop-color:#070708"/>
			<stop  offset="1" style="stop-color:#020203"/>
		</linearGradient>
		<polygon class="st14" points="397.75,453.44 180.39,453.44 234.57,457.19 242.73,466.88 279.01,466.88 282.58,458.96 		"/>
	</g>
	<g>
		<g>
			
				<linearGradient id="SVGID_14_" gradientUnits="userSpaceOnUse" x1="-673.5146" y1="343.0747" x2="-694.5311" y2="374.8759" gradientTransform="matrix(-1 0 0 1 -275.3028 0)">
				<stop  offset="5.586590e-03" style="stop-color:#DF5F2F"/>
				<stop  offset="0.9888" style="stop-color:#A21738"/>
			</linearGradient>
			<path class="st15" d="M394.09,367.66c0.39,1.71,1,3.35,1.78,4.94c1.56,3.18,3.9,6.11,6.54,8.7c3.38,3.26,7.8,6.27,12.78,6.06
				c4.5-0.17,8.36-2.89,11-6.06c6.45-7.74,8.23-19.82,0.91-27.44c-0.26-0.29-0.52-0.59-0.82-0.84c-8.06-7.44-20.57-8.03-28.32-0.08
				C394.09,356.87,392.92,362.56,394.09,367.66z"/>
			<path class="st2" d="M395.87,372.59c1.56,3.18,3.9,6.11,6.54,8.7c3.38,3.26,7.8,6.27,12.78,6.06c4.5-0.17,8.36-2.89,11-6.06
				c6.45-7.74,8.23-19.82,0.91-27.44c-2.04,3.05-2.9,7.03-6.02,9.49c-3.85,3.09-9.27,3.93-14.16,3.64
				c-3.51-0.21-7.75-0.71-9.87,1.97C396.22,370,395.87,371.25,395.87,372.59z"/>
		</g>
		<g>
			
				<linearGradient id="SVGID_15_" gradientUnits="userSpaceOnUse" x1="-678.4514" y1="597.8795" x2="-621.5141" y2="339.3229" gradientTransform="matrix(-1 0 0 1 -275.3028 0)">
				<stop  offset="0.0559" style="stop-color:#5F1215"/>
				<stop  offset="0.2602" style="stop-color:#681B1A"/>
				<stop  offset="0.6442" style="stop-color:#813428"/>
				<stop  offset="0.8607" style="stop-color:#934731"/>
			</linearGradient>
			<path class="st16" d="M350.86,560.2c-5.63,15.97-9.21,34.09-2.94,50.44c1.81,0.59,3.67,0.98,5.53,1.18
				c3.77,0.49,7.69,0.2,11.36-0.98c-0.73-5.09-4.41-10.68-8.91-13.13c-0.24-4.02,0.29-7.89,1.37-11.61
				c2.89-9.79,9.6-18.71,16.26-26.69c9.26-11.07,19.3-22.92,20.28-37.32c0.83-13.32-6.42-25.76-14.06-36.73
				c-14.84-21.21-25.17-43-19.59-69.69c2.01-9.4,5.93-18.41,11.36-26.3c4.11-5.93,7.74-10.04,13.27-11.85
				c2.35-0.78,5.09-1.13,8.37-0.98c-1.86,2.06-3.72,4.16-4.8,6.71c-1.13,2.5-1.27,5.63,0.25,7.93c1.96,2.94,5.93,3.72,9.45,4.11
				c2.15,0.24,4.41,0.44,6.56,0.05c4.31-0.73,7.64-3.67,8.57-7.98c0.69-3.43,0.2-7.05-0.34-10.53c-0.73-4.75-1.62-9.94-5.19-13.17
				c-2.94-2.64-7.1-3.43-11.07-3.53c-7.25-0.2-13.62,1.47-19.15,4.51c-20.81,11.17-30.36,41.29-34.92,63.28
				c-4.07,19.79-3.48,40.85,3.77,59.7c4.46,11.56,11.41,22.43,12.68,34.72C360.31,535.32,355.22,547.91,350.86,560.2z"/>
			
				<linearGradient id="SVGID_16_" gradientUnits="userSpaceOnUse" x1="1048.8656" y1="359.0266" x2="1021.3561" y2="381.7428" gradientTransform="matrix(1 0 0 1 -630.8955 0)">
				<stop  offset="0" style="stop-color:#8A7352"/>
				<stop  offset="0.1192" style="stop-color:#7F6A4E"/>
				<stop  offset="0.3314" style="stop-color:#625242"/>
				<stop  offset="0.6119" style="stop-color:#38312D"/>
				<stop  offset="0.9468" style="stop-color:#070708"/>
				<stop  offset="1" style="stop-color:#020203"/>
			</linearGradient>
			<path class="st17" d="M406.58,390.16c7.28-4.89,4.73-20.81-1.54-25.54c-5.28-3.98-12.9-0.71-18.85-1.13
				c3.69,0.69,7.67,2.73,10.93,4.6c3.25,1.87,5.95,5.13,6.11,8.88c0.08,1.8-0.43,3.57-1.06,5.26c-0.46,1.23-0.99,2.44-1.16,3.74
				c-0.17,1.3,0.08,2.72,0.99,3.66C403.15,390.82,405.21,391.08,406.58,390.16z"/>
			<path class="st0" d="M382.45,529.34c-2.64,20.96-22.04,36.44-26.64,57.1c0.49-0.1,0.98-0.2,1.47-0.34
				c2.89-9.79,9.6-18.71,16.26-26.69c9.26-11.07,19.3-22.92,20.28-37.32c0.83-13.32-6.42-25.76-14.06-36.73
				c-14.84-21.21-25.17-43-19.59-69.69c2.01-9.4,5.93-18.41,11.36-26.3c4.11-5.93,7.74-10.04,13.27-11.85
				c-3.77-3.97-12.15,2.79-15.33,5.97c-5.73,5.68-9.31,13.22-11.61,20.96c-6.91,23.17-3.13,48.53,6.81,70.52
				c4.02,8.82,8.96,17.19,12.68,26.1C381.13,510,383.63,519.74,382.45,529.34z"/>
			
				<linearGradient id="SVGID_17_" gradientUnits="userSpaceOnUse" x1="-625.6612" y1="379.2209" x2="-639.7285" y2="487.6947" gradientTransform="matrix(-1 0 0 1 -275.3028 0)">
				<stop  offset="0" style="stop-color:#8A7352"/>
				<stop  offset="0.1192" style="stop-color:#7F6A4E"/>
				<stop  offset="0.3314" style="stop-color:#625242"/>
				<stop  offset="0.6119" style="stop-color:#38312D"/>
				<stop  offset="0.9468" style="stop-color:#070708"/>
				<stop  offset="1" style="stop-color:#020203"/>
			</linearGradient>
			<path class="st18" d="M349.06,452.2c0.9,8.36,2.7,16.38,4.66,24.47c1.21,5,2.93,9.7,2.97,14.95c0.01,0.79-0.06,1.68-0.67,2.19
				c-0.78,0.66-2.06,0.24-2.69-0.57c-0.63-0.8-0.83-1.85-1.11-2.84c-2.1-7.44-5.51-14.51-7.05-22.36
				c-1.65-8.4-2.44-16.97-2.36-25.53c0.2-20.15,6.32-39.25,16.14-56.8c0.23-0.4,0.45-0.8,0.68-1.2c1.72-2.98,4.11-6.15,7.54-6.41
				c-6.93,11.09-12.49,22.72-15.95,35.37C347.75,426.28,347.63,439.02,349.06,452.2z"/>
		</g>
	</g>
	<g>
		<path class="st19" d="M267.87,490.38c0.08,0.12-2.08-1.73-0.94-4.97c0.48-1.55,1.77-2.93,3.71-3.79c1.91-0.88,4.32-1.27,6.94-1.67
			c10.37-1.64,19.1-1.8,19.1-1.8s-2.12-0.54-5.64-0.93c-3.51-0.38-8.46-0.53-13.83,0.31c-2.65,0.41-5.32,0.97-7.53,2.26
			c-2.23,1.22-3.73,3.41-3.93,5.33c-0.31,1.91,0.29,3.46,0.94,4.25C267.34,490.18,267.87,490.38,267.87,490.38z"/>
	</g>
	<g>
		<path class="st19" d="M217.68,475.8c0,0,7.72,1.1,16.93,2.75c4.52,0.63,8.11,2.83,8.84,5.68c0.78,2.86-0.89,4.61-0.82,4.53
			c-0.15,0.07,2.2-1.1,2.02-4.74c-0.12-1.75-1.19-3.74-2.99-5.16c-1.79-1.47-4.21-2.29-6.61-2.72
			C225.49,474.44,217.68,475.8,217.68,475.8z"/>
	</g>
	<g>
		<path class="st19" d="M251.09,487.62c0,0-0.01-0.46-0.02-1.28c-0.01-0.82-0.06-2.01,0.1-3.4c0.16-1.39,0.56-2.97,1.64-4.22
			c1.05-1.28,2.7-2.04,4.2-1.4c3.41,1.38,3.36,5.97,2.47,8.48c-0.86,2.7-1.66,4.39-1.66,4.39s0.29-0.36,0.81-0.99
			c0.51-0.65,1.25-1.59,1.98-2.93c0.71-1.33,1.42-3.14,1.32-5.34c-0.05-2.16-1.37-4.85-4.03-5.89c-2.81-1.18-5.7,0.62-6.75,2.45
			c-1.25,1.89-1.35,3.95-1.2,5.43c0.15,1.53,0.51,2.68,0.74,3.47C250.95,487.18,251.09,487.62,251.09,487.62z"/>
	</g>
</g>
</svg>
